<svg width="119" height="30" viewBox="0 0 119 30" fill="none" xmlns="http://www.w3.org/2000/svg">
    <path d="M12.0807 13.6279L15.6159 26.4325C15.9922 27.7807 15.5783 28.4548 14.1108 28.4548H12.267C11.1381 28.4548 10.7618 28.1552 10.4984 27.2189L7.78915 17.521C7.67627 17.109 7.48812 17.0715 7.14946 17.3711L5.64431 18.8317C5.2304 19.2063 5.19277 19.3561 5.19277 19.9553V27.0691C5.19277 28.1552 4.89174 28.4548 3.8005 28.4548H1.39226C0.301029 28.4548 0 28.1552 0 27.0691V1.75776C0 0.67168 0.301029 0.37207 1.39226 0.37207H3.72525C4.81648 0.37207 5.11751 0.67168 5.11751 1.75776V11.3808C5.11751 11.6804 5.2304 11.7553 5.41854 11.7553C5.60668 11.7553 5.71957 11.7179 5.98297 11.4932L7.56338 10.07C9.10616 8.68435 9.33193 8.16004 9.33193 5.54033V1.75776C9.33193 0.67168 9.63296 0.37207 10.7242 0.37207H13.1324C14.2237 0.37207 14.5247 0.67168 14.5247 1.75776V5.54033C14.5247 9.88279 14.2989 10.6318 12.3046 12.804C12.0036 13.1036 11.9659 13.2534 12.0788 13.6279H12.0807Z" fill="#FFC470"/>
    <path d="M22.6503 27.0691C22.6503 28.1552 22.3493 28.4548 21.258 28.4548H18.8498C17.7585 28.4548 17.4575 28.1552 17.4575 27.0691V1.75776C17.4575 0.67168 17.7585 0.37207 18.8498 0.37207H21.258C22.3493 0.37207 22.6503 0.67168 22.6503 1.75776V27.0691Z" fill="#FFC470"/>
    <path d="M40.1425 20.5925C40.1425 26.6203 38.4115 28.8299 32.9572 28.8299C27.503 28.8299 25.6968 26.6203 25.6968 20.5925V8.23738C25.6968 2.20962 27.503 0 32.9572 0C38.4115 0 40.1425 2.20962 40.1425 8.23738V9.36092C40.1425 10.447 39.8414 10.7466 38.7502 10.7466H36.342C35.2507 10.7466 34.9497 10.447 34.9497 9.36092V7.33855C34.9497 5.84051 34.31 5.24129 32.993 5.24129C31.676 5.24129 31.0363 5.84051 31.0363 7.33855V21.4913C31.0363 22.9894 31.676 23.5886 32.993 23.5886C34.31 23.5886 34.9497 22.9894 34.9497 21.4913V19.469C34.9497 18.3829 35.2507 18.0833 36.342 18.0833H38.7502C39.8414 18.0833 40.1425 18.3829 40.1425 19.469V20.5925Z" fill="#FFC470"/>
    <path d="M72.7623 27.5619L70.418 27.1163C69.3569 26.914 69.1199 26.5676 69.3231 25.5096L71.1142 16.1787C71.4227 14.5758 71.6203 13.9335 72.3409 12.559L77.8065 2.07644C78.5402 0.628951 78.9617 0.40799 80.8657 0.769394L82.1846 1.02032C84.0886 1.38172 84.399 1.74312 84.5439 3.35727L85.7424 15.1076C85.9079 16.6131 85.8496 17.3191 85.541 18.922L83.7499 28.2529C83.5467 29.3109 83.1987 29.545 82.1356 29.3446L79.7914 28.899C78.7302 28.6967 78.4932 28.3503 78.6964 27.2923L79.6202 22.4817C79.718 21.9724 79.5995 21.7982 79.0858 21.7008L76.0831 21.1297C75.5694 21.0323 75.3963 21.1503 75.2985 21.6596L74.3747 26.4702C74.1715 27.5282 73.8234 27.7623 72.7604 27.5619H72.7623ZM80.8901 16.2629C80.9259 16.0813 80.924 15.8922 80.9221 15.703L80.5872 8.34951C80.5835 7.97125 80.5251 7.88324 80.194 7.82145C79.8629 7.75965 79.7782 7.8177 79.6333 8.16787L76.5986 14.881C76.5271 15.057 76.4556 15.2312 76.4198 15.4147C76.3577 15.7424 76.5478 15.9296 76.9523 16.0064L80.1752 16.6187C80.5778 16.6955 80.8262 16.5906 80.8882 16.2629H80.8901Z" fill="#FFC470"/>
    <path d="M99.032 14.8586C101.531 17.0851 102.089 18.4202 102.089 20.907V21.5755C102.089 26.2513 100.3 28.8485 94.8929 28.8485C89.4856 28.8485 87.6982 26.6595 87.6982 20.686V19.9445C87.6982 18.8678 87.9955 18.5719 89.0773 18.5719H91.6135C92.6953 18.5719 92.9926 18.8678 92.9926 19.9445V21.5774C92.9926 23.0623 93.589 23.6559 94.8947 23.6559C96.2005 23.6559 96.7969 23.0997 96.7969 21.7627V21.0587C96.7969 20.0194 96.573 19.5007 95.1939 18.276L90.7198 14.3062C88.2213 12.1172 87.7001 10.8551 87.7001 8.37021V7.55377C87.7001 2.878 89.4894 0.280762 94.8947 0.280762C100.3 0.280762 102.091 2.46978 102.091 8.44324V9.18477C102.091 10.2615 101.792 10.5574 100.712 10.5574H98.1779C97.096 10.5574 96.7988 10.2615 96.7988 9.18477V7.5519C96.7988 6.06696 96.2023 5.47336 94.8966 5.47336C93.5909 5.47336 92.9945 6.02951 92.9945 7.36652V7.99757C92.9945 9.07429 93.2184 9.59299 94.2626 10.5574L99.0339 14.8624L99.032 14.8586Z" fill="#FFC470"/>
    <path d="M115.061 14.8586C117.557 17.0851 118.118 18.4202 118.118 20.907V21.5755C118.118 26.2513 116.329 28.8485 110.922 28.8485C105.514 28.8485 103.727 26.6595 103.727 20.686V19.9445C103.727 18.8678 104.024 18.5719 105.106 18.5719H107.642C108.724 18.5719 109.021 18.8678 109.021 19.9445V21.5774C109.021 23.0623 109.618 23.6559 110.924 23.6559C112.229 23.6559 112.826 23.0997 112.826 21.7627V21.0587C112.826 20.0194 112.602 19.5007 111.223 18.276L106.749 14.3062C104.25 12.1172 103.729 10.8551 103.729 8.37021V7.55377C103.729 2.878 105.518 0.280762 110.924 0.280762C116.329 0.280762 118.12 2.46978 118.12 8.44324V9.18477C118.12 10.2615 117.821 10.5574 116.741 10.5574H114.207C113.125 10.5574 112.828 10.2615 112.828 9.18477V7.5519C112.828 6.06696 112.231 5.47336 110.925 5.47336C109.62 5.47336 109.023 6.02951 109.023 7.36652V7.99757C109.023 9.07429 109.247 9.59299 110.291 10.5574L115.063 14.8624L115.061 14.8586Z" fill="#FFC470"/>
    <path d="M44.1304 28.4869H46.5481C47.6431 28.4869 47.946 28.1872 47.946 27.0955V19.9536C47.946 19.3525 47.9836 19.2027 48.3994 18.8263L49.9102 17.3601L50.5423 16.8002L61.4566 23.3186C62.2957 23.8223 62.7773 23.7849 63.6033 23.0115L64.9504 21.7494C66.0228 20.7457 65.8591 19.9686 64.6531 19.2402L54.6081 13.1974L55.0841 12.7761C56.7266 11.0608 56.4369 9.84367 56.4369 5.48435V1.68867C56.4369 0.598845 56.1359 0.297363 55.039 0.297363H52.6213C51.5263 0.297363 51.2234 0.596973 51.2234 1.68867V5.48435C51.2234 8.11529 51.3476 9.0703 50.3241 10.0328L48.738 11.4616C48.4746 11.6863 48.3599 11.7256 48.1717 11.7256C47.9836 11.7256 47.8707 11.6507 47.8707 11.3492V1.68867C47.8707 0.598845 47.5678 0.297363 46.4728 0.297363H44.1323C43.0373 0.297363 42.7344 0.596973 42.7344 1.68867V27.0974C42.7344 28.1872 43.0373 28.4887 44.1323 28.4887L44.1304 28.4869Z" fill="#FFC470"/>
</svg> 